<svg xmlns="http://www.w3.org/2000/svg" width="1100" height="700" viewBox="0 0 1100 700" role="img"><rect width="1100" height="700" fill="#ffffff"/><text x="32" y="42" font-family="Inter, Arial, sans-serif" font-size="24" font-weight="700" fill="#0f172a" text-anchor="start">Stars vs OpenRank: Attention and Community Activity</text><line x1="92.0" y1="88" x2="92.0" y2="622" stroke="#e2e8f0"/><line x1="92" y1="88.0" x2="1028" y2="88.0" stroke="#e2e8f0"/><line x1="326.0" y1="88" x2="326.0" y2="622" stroke="#e2e8f0"/><line x1="92" y1="221.5" x2="1028" y2="221.5" stroke="#e2e8f0"/><line x1="560.0" y1="88" x2="560.0" y2="622" stroke="#e2e8f0"/><line x1="92" y1="355.0" x2="1028" y2="355.0" stroke="#e2e8f0"/><line x1="794.0" y1="88" x2="794.0" y2="622" stroke="#e2e8f0"/><line x1="92" y1="488.5" x2="1028" y2="488.5" stroke="#e2e8f0"/><line x1="1028.0" y1="88" x2="1028.0" y2="622" stroke="#e2e8f0"/><line x1="92" y1="622.0" x2="1028" y2="622.0" stroke="#e2e8f0"/><circle cx="1028.0" cy="88.0" r="9.9" fill="#2563eb" opacity="0.58"/><circle cx="860.5" cy="229.7" r="7.4" fill="#0891b2" opacity="0.58"/><circle cx="879.4" cy="153.5" r="7.7" fill="#2563eb" opacity="0.58"/><circle cx="764.7" cy="153.0" r="6.5" fill="#2563eb" opacity="0.58"/><circle cx="807.3" cy="171.9" r="6.9" fill="#0891b2" opacity="0.58"/><circle cx="910.0" cy="198.2" r="8.1" fill="#0891b2" opacity="0.58"/><circle cx="667.5" cy="217.5" r="5.8" fill="#2563eb" opacity="0.58"/><circle cx="847.2" cy="379.1" r="7.3" fill="#0891b2" opacity="0.58"/><circle cx="773.8" cy="368.4" r="6.6" fill="#0891b2" opacity="0.58"/><circle cx="788.7" cy="368.6" r="6.7" fill="#2563eb" opacity="0.58"/><circle cx="717.3" cy="294.6" r="6.1" fill="#2563eb" opacity="0.58"/><circle cx="661.9" cy="275.4" r="5.7" fill="#2563eb" opacity="0.58"/><circle cx="835.2" cy="118.1" r="7.2" fill="#0891b2" opacity="0.58"/><circle cx="854.8" cy="258.5" r="7.4" fill="#2563eb" opacity="0.58"/><circle cx="821.0" cy="284.2" r="7.0" fill="#0891b2" opacity="0.58"/><circle cx="754.4" cy="267.7" r="6.4" fill="#0891b2" opacity="0.58"/><circle cx="762.8" cy="267.6" r="6.5" fill="#0891b2" opacity="0.58"/><circle cx="746.7" cy="305.1" r="6.3" fill="#2563eb" opacity="0.58"/><circle cx="869.2" cy="273.5" r="7.5" fill="#0891b2" opacity="0.58"/><circle cx="554.8" cy="266.8" r="5.1" fill="#2563eb" opacity="0.58"/><circle cx="601.9" cy="277.4" r="5.4" fill="#0891b2" opacity="0.58"/><circle cx="493.8" cy="282.3" r="4.9" fill="#2563eb" opacity="0.58"/><circle cx="698.2" cy="348.5" r="6.0" fill="#0891b2" opacity="0.58"/><circle cx="449.3" cy="247.5" r="4.7" fill="#0891b2" opacity="0.58"/><circle cx="514.0" cy="272.1" r="5.0" fill="#2563eb" opacity="0.58"/><circle cx="539.9" cy="271.5" r="5.1" fill="#2563eb" opacity="0.58"/><circle cx="697.1" cy="349.0" r="6.0" fill="#2563eb" opacity="0.58"/><circle cx="409.3" cy="295.0" r="4.6" fill="#2563eb" opacity="0.58"/><circle cx="518.5" cy="295.3" r="5.0" fill="#0891b2" opacity="0.58"/><circle cx="529.8" cy="298.3" r="5.0" fill="#2563eb" opacity="0.58"/><circle cx="609.6" cy="317.5" r="5.4" fill="#2563eb" opacity="0.58"/><circle cx="854.9" cy="298.0" r="7.4" fill="#0891b2" opacity="0.58"/><circle cx="664.1" cy="254.4" r="5.7" fill="#2563eb" opacity="0.58"/><circle cx="702.8" cy="276.7" r="6.0" fill="#2563eb" opacity="0.58"/><circle cx="642.7" cy="282.9" r="5.6" fill="#2563eb" opacity="0.58"/><circle cx="553.1" cy="306.0" r="5.1" fill="#0891b2" opacity="0.58"/><circle cx="627.9" cy="317.5" r="5.5" fill="#2563eb" opacity="0.58"/><circle cx="748.3" cy="321.3" r="6.4" fill="#2563eb" opacity="0.58"/><circle cx="433.4" cy="316.9" r="4.7" fill="#0891b2" opacity="0.58"/><circle cx="180.8" cy="359.4" r="4.1" fill="#0891b2" opacity="0.58"/><circle cx="554.2" cy="324.3" r="5.1" fill="#2563eb" opacity="0.58"/><circle cx="602.2" cy="294.1" r="5.4" fill="#0891b2" opacity="0.58"/><circle cx="722.2" cy="282.9" r="6.1" fill="#2563eb" opacity="0.58"/><circle cx="599.3" cy="269.0" r="5.4" fill="#2563eb" opacity="0.58"/><circle cx="568.4" cy="347.2" r="5.2" fill="#2563eb" opacity="0.58"/><circle cx="684.4" cy="317.9" r="5.9" fill="#2563eb" opacity="0.58"/><circle cx="370.9" cy="307.8" r="4.5" fill="#0891b2" opacity="0.58"/><circle cx="551.7" cy="385.2" r="5.1" fill="#0891b2" opacity="0.58"/><circle cx="551.8" cy="236.3" r="5.1" fill="#0891b2" opacity="0.58"/><circle cx="745.4" cy="309.2" r="6.3" fill="#0891b2" opacity="0.58"/><circle cx="549.7" cy="320.5" r="5.1" fill="#2563eb" opacity="0.58"/><circle cx="600.6" cy="279.8" r="5.4" fill="#2563eb" opacity="0.58"/><circle cx="542.7" cy="280.6" r="5.1" fill="#2563eb" opacity="0.58"/><circle cx="406.9" cy="258.3" r="4.6" fill="#0891b2" opacity="0.58"/><circle cx="373.6" cy="311.7" r="4.5" fill="#2563eb" opacity="0.58"/><circle cx="601.3" cy="336.4" r="5.4" fill="#0891b2" opacity="0.58"/><circle cx="377.4" cy="339.2" r="4.5" fill="#0891b2" opacity="0.58"/><circle cx="678.7" cy="360.5" r="5.8" fill="#0891b2" opacity="0.58"/><circle cx="580.0" cy="418.2" r="5.3" fill="#0891b2" opacity="0.58"/><circle cx="706.6" cy="443.7" r="6.0" fill="#2563eb" opacity="0.58"/><circle cx="805.0" cy="234.9" r="6.9" fill="#0891b2" opacity="0.58"/><circle cx="530.2" cy="340.2" r="5.0" fill="#0891b2" opacity="0.58"/><circle cx="580.6" cy="341.7" r="5.3" fill="#0891b2" opacity="0.58"/><circle cx="690.3" cy="341.7" r="5.9" fill="#0891b2" opacity="0.58"/><circle cx="503.1" cy="446.0" r="4.9" fill="#2563eb" opacity="0.58"/><circle cx="514.8" cy="270.6" r="5.0" fill="#2563eb" opacity="0.58"/><circle cx="568.0" cy="283.8" r="5.2" fill="#2563eb" opacity="0.58"/><circle cx="395.8" cy="294.4" r="4.5" fill="#0891b2" opacity="0.58"/><circle cx="211.6" cy="305.7" r="4.1" fill="#0891b2" opacity="0.58"/><circle cx="301.3" cy="281.9" r="4.3" fill="#0891b2" opacity="0.58"/><circle cx="396.9" cy="372.6" r="4.5" fill="#2563eb" opacity="0.58"/><circle cx="568.3" cy="354.1" r="5.2" fill="#0891b2" opacity="0.58"/><circle cx="395.6" cy="444.8" r="4.5" fill="#0891b2" opacity="0.58"/><circle cx="551.9" cy="350.4" r="5.1" fill="#0891b2" opacity="0.58"/><circle cx="661.2" cy="303.4" r="5.7" fill="#0891b2" opacity="0.58"/><circle cx="653.3" cy="332.7" r="5.7" fill="#2563eb" opacity="0.58"/><circle cx="658.1" cy="313.5" r="5.7" fill="#0891b2" opacity="0.58"/><circle cx="711.2" cy="354.3" r="6.1" fill="#0891b2" opacity="0.58"/><circle cx="712.2" cy="344.6" r="6.1" fill="#0891b2" opacity="0.58"/><circle cx="381.0" cy="262.4" r="4.5" fill="#0891b2" opacity="0.58"/><circle cx="458.8" cy="238.9" r="4.7" fill="#2563eb" opacity="0.58"/><circle cx="432.4" cy="257.2" r="4.6" fill="#2563eb" opacity="0.58"/><circle cx="190.1" cy="305.5" r="4.1" fill="#0891b2" opacity="0.58"/><circle cx="379.9" cy="316.7" r="4.5" fill="#0891b2" opacity="0.58"/><circle cx="208.3" cy="333.6" r="4.1" fill="#0891b2" opacity="0.58"/><circle cx="318.4" cy="296.4" r="4.3" fill="#0891b2" opacity="0.58"/><circle cx="664.3" cy="199.8" r="5.7" fill="#0891b2" opacity="0.58"/><circle cx="532.9" cy="267.9" r="5.0" fill="#0891b2" opacity="0.58"/><circle cx="478.0" cy="368.4" r="4.8" fill="#0891b2" opacity="0.58"/><circle cx="576.1" cy="331.9" r="5.2" fill="#0891b2" opacity="0.58"/><circle cx="481.7" cy="336.4" r="4.8" fill="#0891b2" opacity="0.58"/><circle cx="338.4" cy="321.1" r="4.4" fill="#0891b2" opacity="0.58"/><circle cx="653.0" cy="215.1" r="5.7" fill="#0891b2" opacity="0.58"/><circle cx="656.2" cy="244.2" r="5.7" fill="#0891b2" opacity="0.58"/><circle cx="300.3" cy="348.3" r="4.3" fill="#0891b2" opacity="0.58"/><circle cx="496.3" cy="330.0" r="4.9" fill="#0891b2" opacity="0.58"/><circle cx="652.3" cy="373.4" r="5.7" fill="#0891b2" opacity="0.58"/><circle cx="486.7" cy="269.8" r="4.8" fill="#0891b2" opacity="0.58"/><circle cx="569.8" cy="383.0" r="5.2" fill="#2563eb" opacity="0.58"/><circle cx="585.3" cy="399.6" r="5.3" fill="#0891b2" opacity="0.58"/><circle cx="461.3" cy="311.5" r="4.7" fill="#0891b2" opacity="0.58"/><circle cx="723.6" cy="304.3" r="6.2" fill="#0891b2" opacity="0.58"/><circle cx="742.2" cy="375.7" r="6.3" fill="#0891b2" opacity="0.58"/><circle cx="894.4" cy="245.5" r="7.9" fill="#2563eb" opacity="0.58"/><circle cx="334.7" cy="207.3" r="4.4" fill="#0891b2" opacity="0.58"/><circle cx="389.7" cy="377.7" r="4.5" fill="#0891b2" opacity="0.58"/><circle cx="183.4" cy="363.9" r="4.1" fill="#0891b2" opacity="0.58"/><circle cx="281.6" cy="319.5" r="4.2" fill="#0891b2" opacity="0.58"/><circle cx="761.4" cy="150.0" r="6.5" fill="#0891b2" opacity="0.58"/><circle cx="576.6" cy="162.0" r="5.2" fill="#2563eb" opacity="0.58"/><circle cx="455.5" cy="178.3" r="4.7" fill="#0891b2" opacity="0.58"/><circle cx="816.3" cy="200.9" r="7.0" fill="#0891b2" opacity="0.58"/><circle cx="406.0" cy="238.5" r="4.6" fill="#0891b2" opacity="0.58"/><circle cx="566.9" cy="268.4" r="5.2" fill="#0891b2" opacity="0.58"/><circle cx="621.2" cy="328.6" r="5.5" fill="#0891b2" opacity="0.58"/><circle cx="573.4" cy="295.6" r="5.2" fill="#0891b2" opacity="0.58"/><circle cx="419.8" cy="309.0" r="4.6" fill="#0891b2" opacity="0.58"/><circle cx="515.9" cy="274.8" r="5.0" fill="#0891b2" opacity="0.58"/><circle cx="394.9" cy="303.4" r="4.5" fill="#2563eb" opacity="0.58"/><circle cx="92.0" cy="342.6" r="3.9" fill="#0891b2" opacity="0.58"/><circle cx="530.9" cy="333.6" r="5.0" fill="#0891b2" opacity="0.58"/><circle cx="481.5" cy="341.6" r="4.8" fill="#0891b2" opacity="0.58"/><circle cx="493.4" cy="378.5" r="4.9" fill="#0891b2" opacity="0.58"/><circle cx="568.4" cy="353.6" r="5.2" fill="#0891b2" opacity="0.58"/><circle cx="507.5" cy="422.7" r="4.9" fill="#0891b2" opacity="0.58"/><circle cx="532.3" cy="258.8" r="5.0" fill="#0891b2" opacity="0.58"/><circle cx="393.0" cy="436.0" r="4.5" fill="#0891b2" opacity="0.58"/><circle cx="287.4" cy="291.0" r="4.3" fill="#2563eb" opacity="0.58"/><circle cx="801.0" cy="135.5" r="6.8" fill="#0891b2" opacity="0.58"/><circle cx="553.3" cy="269.4" r="5.1" fill="#0891b2" opacity="0.58"/><circle cx="622.4" cy="319.6" r="5.5" fill="#0891b2" opacity="0.58"/><circle cx="659.9" cy="260.6" r="5.7" fill="#0891b2" opacity="0.58"/><circle cx="580.0" cy="314.5" r="5.3" fill="#0891b2" opacity="0.58"/><circle cx="485.5" cy="315.2" r="4.8" fill="#2563eb" opacity="0.58"/><circle cx="599.4" cy="310.1" r="5.4" fill="#0891b2" opacity="0.58"/><circle cx="495.8" cy="387.4" r="4.9" fill="#0891b2" opacity="0.58"/><circle cx="274.9" cy="367.6" r="4.2" fill="#0891b2" opacity="0.58"/><circle cx="291.7" cy="302.7" r="4.3" fill="#0891b2" opacity="0.58"/><circle cx="215.0" cy="397.0" r="4.1" fill="#2563eb" opacity="0.58"/><circle cx="581.6" cy="355.3" r="5.3" fill="#2563eb" opacity="0.58"/><circle cx="428.8" cy="559.4" r="4.6" fill="#2563eb" opacity="0.58"/><circle cx="590.6" cy="389.7" r="5.3" fill="#0891b2" opacity="0.58"/><circle cx="329.5" cy="336.6" r="4.4" fill="#0891b2" opacity="0.58"/><circle cx="431.9" cy="484.7" r="4.6" fill="#0891b2" opacity="0.58"/><circle cx="559.4" cy="622.0" r="5.2" fill="#0891b2" opacity="0.58"/><circle cx="468.8" cy="440.9" r="4.8" fill="#0891b2" opacity="0.58"/><circle cx="642.1" cy="437.8" r="5.6" fill="#2563eb" opacity="0.58"/><circle cx="377.0" cy="562.9" r="4.5" fill="#0891b2" opacity="0.58"/><circle cx="296.8" cy="354.4" r="4.3" fill="#0891b2" opacity="0.58"/><circle cx="562.1" cy="352.9" r="5.2" fill="#0891b2" opacity="0.58"/><circle cx="178.3" cy="378.8" r="4.1" fill="#2563eb" opacity="0.58"/><circle cx="271.1" cy="423.3" r="4.2" fill="#0891b2" opacity="0.58"/><circle cx="907.2" cy="314.4" r="8.0" fill="#2563eb" opacity="0.58"/><circle cx="444.3" cy="358.7" r="4.7" fill="#0891b2" opacity="0.58"/><circle cx="541.7" cy="352.0" r="5.1" fill="#0891b2" opacity="0.58"/><circle cx="670.5" cy="416.8" r="5.8" fill="#0891b2" opacity="0.58"/><circle cx="648.6" cy="583.4" r="5.6" fill="#0891b2" opacity="0.58"/><circle cx="575.8" cy="334.3" r="5.2" fill="#2563eb" opacity="0.58"/><circle cx="885.9" cy="516.6" r="7.7" fill="#0891b2" opacity="0.58"/><circle cx="755.4" cy="179.8" r="6.4" fill="#0891b2" opacity="0.58"/><circle cx="458.6" cy="478.2" r="4.7" fill="#0891b2" opacity="0.58"/><circle cx="543.8" cy="499.0" r="5.1" fill="#0891b2" opacity="0.58"/><circle cx="734.1" cy="552.8" r="6.2" fill="#2563eb" opacity="0.58"/><circle cx="633.7" cy="586.5" r="5.6" fill="#0891b2" opacity="0.58"/><circle cx="615.6" cy="462.1" r="5.4" fill="#2563eb" opacity="0.58"/><circle cx="526.4" cy="265.6" r="5.0" fill="#2563eb" opacity="0.58"/><circle cx="446.4" cy="276.8" r="4.7" fill="#0891b2" opacity="0.58"/><circle cx="510.9" cy="394.2" r="4.9" fill="#0891b2" opacity="0.58"/><circle cx="254.3" cy="319.2" r="4.2" fill="#0891b2" opacity="0.58"/><circle cx="543.2" cy="489.5" r="5.1" fill="#0891b2" opacity="0.58"/><circle cx="610.3" cy="545.6" r="5.4" fill="#0891b2" opacity="0.58"/><circle cx="724.3" cy="327.0" r="6.2" fill="#0891b2" opacity="0.58"/><circle cx="360.5" cy="355.3" r="4.4" fill="#2563eb" opacity="0.58"/><circle cx="661.2" cy="424.9" r="5.7" fill="#2563eb" opacity="0.58"/><circle cx="532.4" cy="541.3" r="5.0" fill="#0891b2" opacity="0.58"/><circle cx="413.3" cy="386.2" r="4.6" fill="#0891b2" opacity="0.58"/><circle cx="779.2" cy="557.3" r="6.6" fill="#0891b2" opacity="0.58"/><circle cx="608.5" cy="479.2" r="5.4" fill="#0891b2" opacity="0.58"/><circle cx="340.1" cy="452.5" r="4.4" fill="#0891b2" opacity="0.58"/><circle cx="406.5" cy="370.9" r="4.6" fill="#0891b2" opacity="0.58"/><circle cx="640.4" cy="540.7" r="5.6" fill="#0891b2" opacity="0.58"/><circle cx="917.2" cy="363.2" r="8.1" fill="#0891b2" opacity="0.58"/><circle cx="520.5" cy="570.7" r="5.0" fill="#0891b2" opacity="0.58"/><circle cx="421.0" cy="437.8" r="4.6" fill="#0891b2" opacity="0.58"/><circle cx="701.3" cy="527.6" r="6.0" fill="#0891b2" opacity="0.58"/><circle cx="611.9" cy="572.4" r="5.4" fill="#2563eb" opacity="0.58"/><circle cx="857.9" cy="153.2" r="7.4" fill="#2563eb" opacity="0.58"/><circle cx="905.9" cy="332.3" r="8.0" fill="#2563eb" opacity="0.58"/><circle cx="427.5" cy="401.3" r="4.6" fill="#2563eb" opacity="0.58"/><circle cx="661.0" cy="318.8" r="5.7" fill="#2563eb" opacity="0.58"/><circle cx="560.0" cy="378.0" r="5.2" fill="#2563eb" opacity="0.58"/><circle cx="762.1" cy="429.3" r="6.5" fill="#2563eb" opacity="0.58"/><circle cx="580.4" cy="339.4" r="5.3" fill="#2563eb" opacity="0.58"/><circle cx="686.6" cy="295.1" r="5.9" fill="#0891b2" opacity="0.58"/><circle cx="668.4" cy="259.7" r="5.8" fill="#2563eb" opacity="0.58"/><circle cx="722.7" cy="242.4" r="6.2" fill="#2563eb" opacity="0.58"/><text x="1038.0" y="80.0" font-family="Inter, Arial, sans-serif" font-size="12" font-weight="700" fill="#0f172a" text-anchor="start">openclaw/openclaw</text><text x="845.2495573058443" y="110.1346600234379" font-family="Inter, Arial, sans-serif" font-size="12" font-weight="700" fill="#0f172a" text-anchor="start">anthropics/claude-code</text><text x="889.3888726381526" y="145.548609357989" font-family="Inter, Arial, sans-serif" font-size="12" font-weight="700" fill="#0f172a" text-anchor="start">anomalyco/opencode</text><text x="774.6783606586577" y="145.01588536225574" font-family="Inter, Arial, sans-serif" font-size="12" font-weight="700" fill="#0f172a" text-anchor="start">openai/codex</text><text x="817.2753201722848" y="163.91445053926083" font-family="Inter, Arial, sans-serif" font-size="12" font-weight="700" fill="#0f172a" text-anchor="start">google-gemini/gemini-cli</text><text x="560.0" y="672" font-family="Inter, Arial, sans-serif" font-size="13" font-weight="600" fill="#475569" text-anchor="middle">Stars, log scale</text><text x="26" y="355.0" font-family="Inter, Arial, sans-serif" font-size="13" font-weight="600" fill="#475569" text-anchor="middle">OpenRank, log scale</text></svg>
